<svg width="64" height="64" viewBox="0 0 64 64" fill="none" xmlns="http://www.w3.org/2000/svg">
<path d="M32.0552 64L15.7972 47.622C14.7548 46.5093 13.8231 45.297 13.0152 44.0023C11.2347 41.2657 10.121 38.146 9.76441 34.896C9.14807 27.7275 9.58785 9.53107 9.59106 9.36223H22.7599L32.0552 0L48.8364 16.9361C49.8193 18.1275 50.6975 19.4023 51.4612 20.7462C53.092 23.4522 54.084 26.4978 54.361 29.6492C54.7077 36.3026 54.5065 54.4646 54.5033 54.6152H41.3784L32.083 63.9774L32.0552 64ZM32.0552 16.9426C28.5199 16.9341 25.0911 18.1584 22.3535 20.4067C19.6159 22.655 17.7392 25.788 17.0432 29.2715C16.3472 32.755 16.8751 36.3733 18.5369 39.5093C20.1987 42.6454 22.8915 45.105 26.1561 46.4687C29.4207 47.8325 33.0549 48.0159 36.439 46.9878C39.8231 45.9596 42.7475 43.7835 44.7136 40.8306C46.6797 37.8777 47.5657 34.3308 47.2206 30.7947C46.8754 27.2587 45.3204 23.9524 42.8208 21.4398C39.9658 18.5667 36.0954 16.9493 32.0552 16.9426Z" fill="white"/>
</svg>
