<svg width="64" height="64" viewBox="0 0 64 64" fill="none" xmlns="http://www.w3.org/2000/svg">
<path d="M56.8148 17.0196C56.6238 17.0196 56.4398 16.9497 56.2931 16.8272C53.8114 14.755 50.7183 13.6494 47.5556 13.7255C43.8967 13.663 40.3319 14.9944 37.4979 17.3626C36.2343 18.4186 36.258 20.2923 37.3203 21.5506C38.6534 23.1295 41.0895 23.0949 42.9242 22.144C44.3693 21.3949 45.9764 20.9849 47.6296 20.9412C53.037 21.098 57.3333 25.8039 57.2593 31.5294C57.2593 31.7647 57.2593 32 57.2593 32.2353C57.7037 37.9608 53.7037 42.9804 48.3704 43.451C48.0741 43.451 47.7778 43.5294 47.4815 43.5294C32.6667 43.5294 36.8148 14.0392 16.963 14.0392C7.77778 13.8039 0.222222 21.4902 0 31.2157C0 31.451 0 31.7647 0 32V60.4444C0 62.4081 1.59188 64 3.55556 64C5.51923 64 7.11111 62.4081 7.11111 60.4444V47.2744C7.11111 47.1553 7.2076 47.0588 7.32664 47.0588C7.37872 47.0588 7.42906 47.0778 7.46851 47.1118C9.97734 49.2738 13.1374 50.4307 16.3704 50.3529C20.0572 50.4769 23.6515 49.2301 26.5325 46.8834C27.8692 45.7945 27.8286 43.8254 26.6941 42.5272C25.3062 40.9392 22.8286 41.0003 20.9509 41.9606C19.5189 42.693 17.9301 43.094 16.2963 43.1373C10.8889 43.0588 6.59259 38.3529 6.66667 32.6275C6.66667 32.104 6.71097 31.5768 6.70728 31.0533C6.66929 25.6629 10.5431 21.0763 15.6296 20.6274C15.9259 20.6274 16.2222 20.549 16.5185 20.549C31.3333 20.549 27.1852 50.0392 47.037 50.0392C56.2222 50.2745 63.7778 42.5882 64 32.8627C64 32.4706 64 32.1569 64 31.7647V3.55556C64 1.59188 62.4081 0 60.4444 0C58.4808 0 56.8889 1.59188 56.8889 3.55556V16.9455C56.8889 16.9864 56.8557 17.0196 56.8148 17.0196Z" fill="white"/>
</svg>
